<svg width="99" height="102" viewBox="0 0 99 102" fill="none" xmlns="http://www.w3.org/2000/svg">
<path d="M87.0375 46.9625L53.4188 12.325C52.3875 11.2625 50.9437 10.625 49.5 10.625C48.0563 10.625 46.6125 11.2625 45.5812 12.325L38.3625 19.7625L46.8188 28.475C47.6438 28.05 48.4688 27.8375 49.5 27.8375C53.0062 27.8375 55.6875 30.6 55.6875 34.2125C55.6875 35.275 55.4813 36.125 55.0688 36.975L63.3188 45.475C64.1438 45.05 64.9688 44.8375 66 44.8375C69.5062 44.8375 72.1875 47.6 72.1875 51.2125C72.1875 54.825 69.5062 57.5875 66 57.5875C62.4938 57.5875 59.8125 54.825 59.8125 51.2125C59.8125 50.15 60.0187 49.3 60.4312 48.45L52.1812 39.95C51.975 39.95 51.7687 40.1625 51.5625 40.1625V62.2625C54.0375 63.1125 55.6875 65.45 55.6875 68.2125C55.6875 71.825 53.0062 74.5875 49.5 74.5875C45.9938 74.5875 43.3125 71.825 43.3125 68.2125C43.3125 65.45 44.9625 63.1125 47.4375 62.2625V39.95C44.9625 39.1 43.3125 36.7625 43.3125 34C43.3125 32.9375 43.5187 32.0875 43.9312 31.2375L35.475 22.525L11.9625 46.9625C10.9313 48.025 10.3125 49.5125 10.3125 51C10.3125 52.4875 10.9313 53.975 11.9625 55.0375L45.5812 89.675C46.6125 90.7375 48.0563 91.375 49.5 91.375C50.9437 91.375 52.3875 90.7375 53.4188 89.675L87.0375 55.0375C88.0687 53.975 88.6875 52.4875 88.6875 51C88.6875 49.5125 88.0687 48.025 87.0375 46.9625Z" fill="#F4511E"/>
</svg>
