<svg width="99" height="101" viewBox="0 0 99 101" fill="none" xmlns="http://www.w3.org/2000/svg">
<g filter="url(#filter0_d_18_119)">
<path d="M44.9625 8.83742C25.9875 10.9416 10.725 26.5124 8.66248 45.4499C6.59998 65.2291 17.7375 82.9041 34.65 89.6374C35.8875 90.0583 37.125 89.2166 37.125 87.5332V80.7999C37.125 80.7999 35.475 81.2207 33.4125 81.2207C27.6375 81.2207 25.1625 76.1708 24.75 73.2249C24.3375 71.5416 23.5125 70.2791 22.275 69.0166C21.0375 68.5958 20.625 68.5958 20.625 68.1749C20.625 67.3333 21.8625 67.3333 22.275 67.3333C24.75 67.3333 26.8125 70.2791 27.6375 71.5416C29.7 74.9082 32.175 75.7499 33.4125 75.7499C35.0625 75.7499 36.3 75.3291 37.125 74.9082C37.5375 71.9624 38.775 69.0166 41.25 67.3333C31.7625 65.2291 24.75 59.7583 24.75 50.4999C24.75 45.8708 26.8125 41.2416 29.7 37.8749C29.2875 37.0333 28.875 34.9291 28.875 31.9833C28.875 30.2999 28.875 28.1958 29.7 26.5124C29.7 25.6708 30.525 25.2499 30.9375 25.2499H31.35C33.4125 25.6708 37.5375 26.9333 41.25 30.7208C43.725 29.8791 46.6125 29.4583 49.5 29.4583C52.3875 29.4583 55.275 29.8791 57.75 30.7208C61.4625 26.9333 66 25.6708 68.0625 25.2499H68.475C69.3 25.2499 69.7125 25.6708 70.125 26.5124C70.125 28.1958 70.125 30.2999 70.125 31.9833C70.125 35.3499 69.7125 37.0333 69.3 37.8749C72.1875 41.2416 74.25 45.4499 74.25 50.4999C74.25 59.7583 67.2375 65.2291 57.75 67.3333C60.225 69.4374 61.875 73.2249 61.875 77.0124V87.9541C61.875 89.2166 63.1125 90.4791 64.7625 90.0583C80.025 83.7458 90.75 68.5958 90.75 50.9208C90.75 25.6708 69.7125 5.89159 44.9625 8.83742Z" fill="black"/>
</g>
<defs>
<filter id="filter0_d_18_119" x="-4" y="0" width="107" height="109" filterUnits="userSpaceOnUse" color-interpolation-filters="sRGB">
<feFlood flood-opacity="0" result="BackgroundImageFix"/>
<feColorMatrix in="SourceAlpha" type="matrix" values="0 0 0 0 0 0 0 0 0 0 0 0 0 0 0 0 0 0 127 0" result="hardAlpha"/>
<feOffset dy="4"/>
<feGaussianBlur stdDeviation="2"/>
<feComposite in2="hardAlpha" operator="out"/>
<feColorMatrix type="matrix" values="0 0 0 0 0 0 0 0 0 0 0 0 0 0 0 0 0 0 0.25 0"/>
<feBlend mode="normal" in2="BackgroundImageFix" result="effect1_dropShadow_18_119"/>
<feBlend mode="normal" in="SourceGraphic" in2="effect1_dropShadow_18_119" result="shape"/>
</filter>
</defs>
</svg>
